<svg id="Calque_1" data-name="Calque 1" xmlns="http://www.w3.org/2000/svg" viewBox="0 0 335.98 233.56"><defs><style>.cls-1{fill:#1a1a1a;}</style></defs><title>entier noir</title><path class="cls-1" d="M169.78,27.62a4.45,4.45,0,0,1,3.41,1.85,4.71,4.71,0,0,1,1.19,3.82A6.12,6.12,0,0,1,172,37l-3.06,2.49,3,3.66-1.12.91-9.2-11.33,4.18-3.4A6.29,6.29,0,0,1,169.78,27.62Zm3.21,5.6a3.37,3.37,0,0,0-.85-2.85A3.25,3.25,0,0,0,169.59,29a5,5,0,0,0-3.09,1.33l-3,2.45,4.59,5.66,3-2.45A4.89,4.89,0,0,0,173,33.22Z"/><path class="cls-1" d="M193.9,29.32,189,26.39q-.59.33-.91.48l-3.62,1.73,2,4.26-1.3.62-6.3-13.17L183.84,18a6.36,6.36,0,0,1,4.36-.68,4.44,4.44,0,0,1,2.89,2.59,5,5,0,0,1,.51,3.11,4.58,4.58,0,0,1-1.53,2.61l5.34,3Zm-6.36-3.62A4.86,4.86,0,0,0,190,23.45a3.39,3.39,0,0,0-.17-3,3.25,3.25,0,0,0-2.17-1.93,5,5,0,0,0-3.3.56l-3.62,1.73,3.14,6.58Z"/><path class="cls-1" d="M210,10.79a7.52,7.52,0,0,1,3.22,2.11,7,7,0,0,1,1.71,3.46,7.16,7.16,0,0,1-.3,3.86,7.69,7.69,0,0,1-13,2.49A7.15,7.15,0,0,1,200,19.23a7,7,0,0,1,.3-3.84,7.52,7.52,0,0,1,2.21-3.16A7.9,7.9,0,0,1,210,10.79Zm-6.57,2.4a6.14,6.14,0,0,0-1.8,2.6,5.88,5.88,0,0,0-.24,3.17,6,6,0,0,0,1.4,2.88,6.16,6.16,0,0,0,2.64,1.78,6,6,0,0,0,3.19.23,6,6,0,0,0,2.85-1.39,6.19,6.19,0,0,0,1.78-2.63,6,6,0,0,0,.24-3.19,5.88,5.88,0,0,0-1.4-2.86A6.17,6.17,0,0,0,209.49,12a6,6,0,0,0-3.16-.22A6.1,6.1,0,0,0,203.45,13.19Z"/><path class="cls-1" d="M221.9,8.82,233,9.26l-.05,1.31-4.82-.19-.53,13.29-1.44-.06.53-13.29-4.82-.19Z"/><path class="cls-1" d="M242.76,10.75l1.39.38-1.78,6.44L251.16,20l1.78-6.44,1.39.38L250.44,28l-1.39-.38,1.77-6.38L242,18.82l-1.77,6.38-1.39-.38Z"/><path class="cls-1" d="M265.45,18.76,274,23.56l-.64,1.13-7.25-4.1-2.57,4.54L270,28.8l-.64,1.13-6.49-3.67L260.16,31l7.49,4.23L267,36.41l-8.75-4.94Zm7.76-.36.95,1.25-3.32.52-1-.74Z"/><path class="cls-1" d="M286.37,35.33a7.36,7.36,0,0,0-1.29-1.57,4.34,4.34,0,0,0-2.19-1.17,1.84,1.84,0,0,0-1.76.6,2.12,2.12,0,0,0-.6,1.42,3.53,3.53,0,0,0,.32,1.48,19.3,19.3,0,0,0,1,1.88,17.41,17.41,0,0,1,1.2,2.24,4.23,4.23,0,0,1,.32,2,3.76,3.76,0,0,1-2.84,3.12,4.22,4.22,0,0,1-2.3-.2,7.14,7.14,0,0,1-2.36-1.46,7.67,7.67,0,0,1-1.81-2.44,8,8,0,0,1-.78-2.86l1.29-.44a7.2,7.2,0,0,0,.69,2.64,6.55,6.55,0,0,0,1.53,2.11,4.58,4.58,0,0,0,2.43,1.27,2.11,2.11,0,0,0,2-.7,2.22,2.22,0,0,0,.63-1.45,3.31,3.31,0,0,0-.32-1.49q-.33-.72-1-1.91a21,21,0,0,1-1.19-2.24,4,4,0,0,1-.32-1.92,3.32,3.32,0,0,1,.94-2,3.15,3.15,0,0,1,1.76-1,4,4,0,0,1,2.16.22A7,7,0,0,1,286,32.81a8.79,8.79,0,0,1,2.49,4l-1.29.5A7.59,7.59,0,0,0,286.37,35.33Z"/><path class="cls-1" d="M296.34,43.94l.89,1.13-11.47,9L284.86,53Z"/><path class="cls-1" d="M305.25,60.51a7.4,7.4,0,0,0-.68-1.91,4.35,4.35,0,0,0-1.67-1.84,1.84,1.84,0,0,0-1.86,0,2.12,2.12,0,0,0-1,1.13,3.53,3.53,0,0,0-.2,1.5,19.15,19.15,0,0,0,.32,2.11,17.41,17.41,0,0,1,.37,2.52,4.24,4.24,0,0,1-.36,2,3.76,3.76,0,0,1-3.72,2,4.21,4.21,0,0,1-2.1-1,7.14,7.14,0,0,1-1.73-2.18,7.66,7.66,0,0,1-.88-2.91,8,8,0,0,1,.23-3l1.36,0a7.19,7.19,0,0,0-.25,2.72,6.55,6.55,0,0,0,.73,2.5,4.59,4.59,0,0,0,1.85,2,2.12,2.12,0,0,0,2.07,0A2.23,2.23,0,0,0,298.79,65a3.32,3.32,0,0,0,.21-1.51q-.07-.79-.33-2.15a21.17,21.17,0,0,1-.36-2.51,4,4,0,0,1,.34-1.92,3.32,3.32,0,0,1,1.55-1.55,3.14,3.14,0,0,1,2-.37,4,4,0,0,1,2,.94A7,7,0,0,1,305.8,58a8.8,8.8,0,0,1,1,4.59l-1.38,0A7.59,7.59,0,0,0,305.25,60.51Z"/><path class="cls-1" d="M311.34,70.37,314.46,81l-1.26.37-1.36-4.63L299.08,80.5l-.41-1.38,12.76-3.75-1.36-4.63Z"/><path class="cls-1" d="M316.05,90.57l.71,9.75-1.29.09-.61-8.31-5.21.38.54,7.44-1.29.09-.54-7.44-5.48.4.63,8.58-1.29.09-.73-10Z"/><path class="cls-1" d="M310.56,132.75a7.52,7.52,0,0,1-3.38,1.85,7,7,0,0,1-3.85-.12,7.17,7.17,0,0,1-3.27-2.08,7.7,7.7,0,0,1,3.89-12.61,7.15,7.15,0,0,1,3.87.12,7,7,0,0,1,3.25,2.07,7.52,7.52,0,0,1,1.75,3.43,7.9,7.9,0,0,1-2.26,7.32Zm1-6.92a6.14,6.14,0,0,0-1.45-2.81,5.87,5.87,0,0,0-2.69-1.7,6,6,0,0,0-3.2-.11,6.17,6.17,0,0,0-2.81,1.49,6,6,0,0,0-1.7,2.71,6,6,0,0,0-.11,3.17,6.21,6.21,0,0,0,1.48,2.81,6,6,0,0,0,2.71,1.71,5.88,5.88,0,0,0,3.18.11,6.17,6.17,0,0,0,2.78-1.49,6,6,0,0,0,1.68-2.68A6.1,6.1,0,0,0,311.53,125.83Z"/><path class="cls-1" d="M299.84,155.41l-.76,1.2-12.34-7.8.82-1.29,15.28-1-10.45-6.61.77-1.22,12.33,7.8-.81,1.29-15.29,1Z"/><path class="cls-1" d="M278.64,167.57l-.93.87-3.65-3.91a8.09,8.09,0,0,1,.85-2.72,8.35,8.35,0,0,1,1.75-2.33,7.62,7.62,0,0,1,7.34-1.78,7.15,7.15,0,0,1,3.3,2,7,7,0,0,1,1.79,3.42,7.47,7.47,0,0,1-.2,3.86,7.73,7.73,0,0,1-2.14,3.35,8.09,8.09,0,0,1-2.45,1.58,7.85,7.85,0,0,1-2.79.61l-.09-1.32a6.34,6.34,0,0,0,2.39-.47,6.72,6.72,0,0,0,2.08-1.33,6.08,6.08,0,0,0,1.71-2.73,6.23,6.23,0,0,0,.13-3.17,5.89,5.89,0,0,0-1.49-2.81,6,6,0,0,0-2.73-1.7,6.23,6.23,0,0,0-6,1.44,6.51,6.51,0,0,0-1.28,1.67,7.19,7.19,0,0,0-.73,2Z"/><path class="cls-1" d="M265.3,171.24a5.21,5.21,0,0,0-5.95,3.25,4.84,4.84,0,0,0,.62,3.66l4.16,7.63-1.27.69-4.16-7.62A6.05,6.05,0,1,1,269.32,173l4.16,7.63-1.27.69-4.16-7.62A4.81,4.81,0,0,0,265.3,171.24Z"/><path class="cls-1" d="M252.08,190.49l-1.39.39-3.63-12.8-6.19,1.76-.35-1.25,7.57-2.15Z"/><path class="cls-1" d="M222.67,180.46l2,3.78,8.09-.48,1.48-4,1.54-.09-5.7,15-1.5.09-7.43-14.18Zm9.56,4.62-7,.41,4,7.67Z"/><path class="cls-1" d="M212.78,194.22l-1.43-.18,1.81-14.48,1.43.18Z"/><path class="cls-1" d="M195.39,175.11l1.53,5.5q.65.17,1,.28l3.81,1.24,1.45-4.49,1.37.44L200,192l-5.19-1.68a6.36,6.36,0,0,1-3.63-2.5,4.43,4.43,0,0,1-.32-3.87,5,5,0,0,1,1.77-2.61,4.57,4.57,0,0,1,2.91-.84l-1.79-5.87Zm2.12,7a4.86,4.86,0,0,0-3.35-.09,3.39,3.39,0,0,0-1.92,2.27,3.25,3.25,0,0,0,.25,2.89,5,5,0,0,0,2.78,1.87l3.81,1.24,2.25-6.93Z"/><path class="cls-1" d="M179.19,183.64l-8.34-5.09.67-1.11,7.11,4.34,2.72-4.46L175,173.44l.67-1.11,6.36,3.88,2.86-4.69L177.54,167l.67-1.11,8.57,5.23Z"/><path class="cls-1" d="M240.62,38.94a16.31,16.31,0,0,1,4.73.7c6.45,1.93,11.26,7.67,14.28,17a78.22,78.22,0,0,1,3,14.56c.47,3.77.79,7.88,1,12.26a207.47,207.47,0,0,1-1.91,36.58,88.42,88.42,0,0,1-2.35,11.41,41.72,41.72,0,0,1-11,18.16,40,40,0,0,1-27.69,11.28,38.24,38.24,0,0,1-10.22-1.39l-.74-.21a39.71,39.71,0,0,1-27-29.4,41.66,41.66,0,0,1,.72-21.21,85.3,85.3,0,0,1,4.28-10.84,203.75,203.75,0,0,1,18.43-31.63c2.51-3.51,4.81-6.53,7-9.2a89,89,0,0,1,8.38-8.8c6.8-6.17,13.2-9.3,19.13-9.3m-50,65.75c3-5.91,6.12-11.71,9.37-17.43s6.69-11.34,10.43-16.73a102.8,102.8,0,0,1,12.42-15.15,43.11,43.11,0,0,1,7.62-6.07A21.85,21.85,0,0,1,239.62,46h-.41A21.1,21.1,0,0,0,230,48.45a39.27,39.27,0,0,0-8.2,5.78,85.58,85.58,0,0,0-13,15.15c-1.87,2.75-3.67,5.55-5.36,8.4s-3.29,5.76-4.79,8.72a157.41,157.41,0,0,0-8,18.17m50-67.25c-6.28,0-13.05,3.26-20.14,9.69A90.54,90.54,0,0,0,212,56.08c-2.22,2.66-4.54,5.7-7.1,9.29a205.29,205.29,0,0,0-18.57,31.88,86.64,86.64,0,0,0-4.36,11,43.16,43.16,0,0,0-.74,22,41.22,41.22,0,0,0,28.07,30.5l.77.21a39.76,39.76,0,0,0,10.62,1.44,41.25,41.25,0,0,0,28.73-11.7,43.24,43.24,0,0,0,11.44-18.81,90,90,0,0,0,2.39-11.62,209,209,0,0,0,1.93-36.86c-.17-4.4-.5-8.57-1-12.38a79.64,79.64,0,0,0-3.11-14.84c-3.19-9.87-8.33-15.93-15.28-18a17.88,17.88,0,0,0-5.16-.76Z"/><path class="cls-1" d="M58,41.62H29.58v.31c3.57,0,3.95,2.32,3.95,6.89V78.27c0,4.57-.38,6.89-3.95,6.89v.32H42.93v-.32c-3.57,0-3.89-2.32-4-6.89V63.8h4.57c4.83,0,8.77,3.51,8.77,7.7h.32V55.78h-.32c0,4.2-3.94,7.7-8.77,7.7H39V48.82c.06-4.57.38-6.89,4-6.89h5.2c6.26,0,9.83,4.26,11.65,8.34h.31Z"/><path class="cls-1" d="M82.14,54c-2.38.25-7.33,3.82-8.89,9.52.06-5.76.5-8.33,1.06-8.64v-.31H64.16v.31c3.57,0,4,2.25,4,6.89V78.27c0,4.57-.38,6.89-4,6.89v.32h13v-.32c-3.57,0-3.88-2.32-3.94-6.89l.06-14.1c.88-3.44,3.45-7.14,5.64-7.76s2.32,1.31,3.88,2.31a2.34,2.34,0,0,0,3.7-1.88C86.59,54.84,84.65,53.65,82.14,54Z"/><path class="cls-1" d="M95.36,70.94a26.36,26.36,0,0,1,.25-6.33h23.62C118,57.47,112.4,53.4,105,54c-8.71.63-15.85,7.46-15.22,17.17C90.54,81.47,99.12,86.6,107.95,86a15.53,15.53,0,0,0,9.84-4V81.4a14.68,14.68,0,0,1-9.84,4.39C101.25,86,96.18,80.28,95.36,70.94ZM105,54.21c6.39.13,8.4,5,8.9,10.15H95.67C96.8,58.47,100.19,54.15,105,54.21Z"/><path class="cls-1" d="M153.69,78.27V63.92c0-7.39-4.51-10-10.72-10a10.25,10.25,0,0,0-9.21,5.76c.19-3.13.57-4.63,1-4.82v-.31H124.55v.31c3.57,0,4,2.25,4,6.89V78.27c0,4.57-.38,6.89-4,6.89v.32h13.1v-.32c-3.57,0-4-2.32-4-6.89v-14c0-1.44,0-2.7.06-3.82,1.44-3.83,5.33-6.08,8-6.08,6.08,0,6.83,5.07,6.83,9.27V78.27c0,4.57-.38,6.89-4,6.89v.32h13v-.32C154.06,85.16,153.75,82.91,153.69,78.27Z"/><path class="cls-1" d="M167,70.94c-.38-9,2.88-16.23,9.33-16.73,3.64-.25,7.21,1.13,8.46,3s-.37,2.63-.81,4.39a2.3,2.3,0,0,0,2.75,2.82c1.7-.38,2.45-2.64,1.38-4.89s-5.57-6.27-11.78-5.58c-8.7.88-15,6.64-14.59,17.11s8.77,15.53,17.6,15A15.81,15.81,0,0,0,188,82.41v-.76c-1.69,1.82-5.45,4.14-8.71,4.14C172.6,85.85,167.4,80,167,70.94Z"/><path class="cls-1" d="M223.1,78.27V63.92c0-6.5-3.43-9.29-8.43-9.89a18.68,18.68,0,0,0-2.28-.13,10.16,10.16,0,0,0-9.28,5.89V49.07c0-6.26.44-9.08,1.07-9.39v-.32H194v.32c3.57,0,3.94,2.25,3.94,6.83v30c1.69-2.69,3.44-5.32,5.2-7.84V60.54c1.38-3.88,5.33-6.2,8-6.2a7.81,7.81,0,0,1,2.82.47c3.51,1.33,4,5.32,4,8.8V78.27c0,4.57-.37,6.89-3.94,6.89v.32h13v-.32C223.48,85.16,223.16,82.84,223.1,78.27Z"/><path class="cls-1" d="M65.54,116.8H30.33l-1.38,9.39h.32c1.82-4.07,4.63-9.08,10.9-9.08h1.07c3.57,0,3.94,2.25,3.94,6.89v29.45c0,4.57-.37,6.89-3.94,6.89v.31h13.4v-.31c-3.57,0-3.94-2.32-3.94-6.89V124c0-4.64.37-6.89,3.94-6.89h1.07c6.26,0,9.08,5,10.9,9.08h.31Z"/><path class="cls-1" d="M84.09,129.14c-9.34.63-15.85,8-15.29,17.54s9,15.41,18.11,14.54c8.89-.82,14.41-8.71,14.09-17.42C100.69,134.34,92.92,128.51,84.09,129.14ZM86.91,161c-6.83.87-11.91-4.83-12.66-14.66-.69-9.59,3-16.36,9.84-16.92,6.45-.5,10.9,6.89,11.4,14.66C96,152.45,92.73,160.15,86.91,161Z"/><path class="cls-1" d="M134,153.51v-14.1c0-6.26.44-9.08,1.06-9.39v-.32H124.93V130c3.57,0,3.89,2.25,4,6.89v14c0,1.44-.06,2.76-.06,3.82-1.44,3.83-5.33,6.08-8,6.08-6.08,0-6.77-5-6.77-9.27V139.41c0-6.26.44-9.08,1-9.39v-.32H104.88V130c3.57,0,4,2.25,4,6.89v14.35c0,7.45,4.57,10,10.78,10a10.1,10.1,0,0,0,9.14-5.7c-.18,3.07-.5,4.57-.94,4.76v.31H138v-.31C134.39,160.34,134.08,158.08,134,153.51Z"/><path class="cls-1" d="M148.61,146.12c-.37-9,2.88-16.23,9.34-16.73,3.63-.25,7.2,1.13,8.45,3s-.37,2.63-.81,4.38a2.3,2.3,0,0,0,2.76,2.82c1.69-.37,2.44-2.63,1.38-4.89s-5.58-6.26-11.78-5.57c-8.71.88-15,6.64-14.6,17.1s8.77,15.54,17.6,15a15.7,15.7,0,0,0,8.65-3.64v-.75c-1.69,1.82-5.45,4.14-8.71,4.14C154.19,161,149,155.14,148.61,146.12Z"/><path class="cls-1" d="M207.27,160.19a2.46,2.46,0,0,1-.48-.16c-1.85-.76-2-3-2.11-6.58V139.1c0-7.45-4.51-10-10.71-10A10.13,10.13,0,0,0,184.7,135V124.25c0-6.26.44-9.08,1.06-9.4v-.31H175.55v.31c3.57,0,4,2.26,4,6.83v31.77c0,4.57-.38,6.89-4,6.89v.31h13.09v-.31c-3.57,0-3.94-2.32-3.94-6.89V135.72c1.38-3.89,5.32-6.21,8-6.21,6.07,0,6.83,5,6.83,9.28v14.66a26,26,0,0,1-.15,3.27c-.3,2.4-1.22,3.62-3.8,3.62v.31h13v-.31A5.48,5.48,0,0,1,207.27,160.19Z"/></svg>