<svg id="Calque_1" data-name="Calque 1" xmlns="http://www.w3.org/2000/svg" viewBox="0 0 335.98 233.56"><defs><style>.cls-1{fill:#fff;}</style></defs><title>entier blanc</title><path class="cls-1" d="M165.93,30.79a4.45,4.45,0,0,1,3.41,1.85,4.71,4.71,0,0,1,1.19,3.82,6.12,6.12,0,0,1-2.43,3.67L165,42.61l3,3.66-1.12.91-9.2-11.33,4.18-3.4A6.29,6.29,0,0,1,165.93,30.79Zm3.21,5.6a3.37,3.37,0,0,0-.85-2.85,3.25,3.25,0,0,0-2.56-1.37,5,5,0,0,0-3.09,1.33l-3,2.45,4.59,5.66,3-2.45A4.89,4.89,0,0,0,169.14,36.39Z"/><path class="cls-1" d="M190.05,32.49l-4.9-2.93q-.59.33-.91.48l-3.62,1.73,2,4.26-1.3.62-6.3-13.17L180,21.13a6.36,6.36,0,0,1,4.36-.68A4.44,4.44,0,0,1,187.24,23a5,5,0,0,1,.51,3.11,4.58,4.58,0,0,1-1.53,2.61l5.34,3Zm-6.36-3.62a4.86,4.86,0,0,0,2.49-2.24,3.39,3.39,0,0,0-.17-3,3.25,3.25,0,0,0-2.17-1.93,5,5,0,0,0-3.3.56L176.93,24l3.14,6.58Z"/><path class="cls-1" d="M206.17,14a7.52,7.52,0,0,1,3.22,2.11,7,7,0,0,1,1.71,3.46,7.16,7.16,0,0,1-.3,3.86,7.69,7.69,0,0,1-13,2.49,7.15,7.15,0,0,1-1.71-3.48,7,7,0,0,1,.3-3.84,7.52,7.52,0,0,1,2.21-3.16A7.9,7.9,0,0,1,206.17,14Zm-6.57,2.4a6.14,6.14,0,0,0-1.8,2.6,5.88,5.88,0,0,0-.24,3.17A6,6,0,0,0,199,25a6.16,6.16,0,0,0,2.64,1.78,6,6,0,0,0,3.19.23,6,6,0,0,0,2.85-1.39A6.19,6.19,0,0,0,209.42,23a6,6,0,0,0,.24-3.19,5.88,5.88,0,0,0-1.4-2.86,6.17,6.17,0,0,0-2.62-1.75,6,6,0,0,0-3.16-.22A6.1,6.1,0,0,0,199.6,16.36Z"/><path class="cls-1" d="M218,12l11.08.44-.05,1.31-4.82-.19-.53,13.29-1.44-.06.53-13.29L218,13.31Z"/><path class="cls-1" d="M238.91,13.92l1.39.38-1.78,6.44,8.79,2.43,1.78-6.44,1.39.38L246.59,31.2l-1.39-.38L247,24.43,238.17,22l-1.77,6.38L235,28Z"/><path class="cls-1" d="M261.6,21.93l8.51,4.81-.64,1.13-7.25-4.1-2.57,4.54L266.14,32l-.64,1.13L259,29.44l-2.7,4.78,7.49,4.23-.64,1.13-8.75-4.94Zm7.76-.36.95,1.25-3.32.52-1-.74Z"/><path class="cls-1" d="M282.52,38.5a7.36,7.36,0,0,0-1.29-1.57A4.34,4.34,0,0,0,279,35.77a1.84,1.84,0,0,0-1.76.6,2.12,2.12,0,0,0-.6,1.42,3.53,3.53,0,0,0,.32,1.48,19.3,19.3,0,0,0,1,1.88,17.41,17.41,0,0,1,1.2,2.24,4.23,4.23,0,0,1,.32,2,3.76,3.76,0,0,1-2.84,3.12,4.22,4.22,0,0,1-2.3-.2A7.14,7.14,0,0,1,272,46.8a7.67,7.67,0,0,1-1.81-2.44,8,8,0,0,1-.78-2.86l1.29-.44a7.2,7.2,0,0,0,.69,2.64,6.55,6.55,0,0,0,1.53,2.11,4.58,4.58,0,0,0,2.43,1.27,2.11,2.11,0,0,0,2-.7,2.22,2.22,0,0,0,.63-1.45,3.31,3.31,0,0,0-.32-1.49q-.33-.72-1-1.91a21,21,0,0,1-1.19-2.24,4,4,0,0,1-.32-1.92,3.32,3.32,0,0,1,.94-2,3.15,3.15,0,0,1,1.76-1,4,4,0,0,1,2.16.22A7,7,0,0,1,282.2,36a8.79,8.79,0,0,1,2.49,4l-1.29.5A7.59,7.59,0,0,0,282.52,38.5Z"/><path class="cls-1" d="M292.49,47.12l.89,1.13-11.47,9L281,56.14Z"/><path class="cls-1" d="M301.39,63.68a7.4,7.4,0,0,0-.68-1.91A4.35,4.35,0,0,0,299,59.93a1.84,1.84,0,0,0-1.86,0,2.12,2.12,0,0,0-1,1.13,3.53,3.53,0,0,0-.2,1.5,19.15,19.15,0,0,0,.32,2.11,17.41,17.41,0,0,1,.37,2.52,4.24,4.24,0,0,1-.36,2,3.76,3.76,0,0,1-3.72,2,4.21,4.21,0,0,1-2.1-1,7.14,7.14,0,0,1-1.73-2.18,7.66,7.66,0,0,1-.88-2.91,8,8,0,0,1,.23-3l1.36,0a7.19,7.19,0,0,0-.25,2.72,6.55,6.55,0,0,0,.73,2.5,4.59,4.59,0,0,0,1.85,2,2.12,2.12,0,0,0,2.07,0,2.23,2.23,0,0,0,1.09-1.15,3.32,3.32,0,0,0,.21-1.51q-.07-.79-.33-2.15a21.17,21.17,0,0,1-.36-2.51,4,4,0,0,1,.34-1.92,3.32,3.32,0,0,1,1.55-1.55,3.14,3.14,0,0,1,2-.37,4,4,0,0,1,2,.94,7,7,0,0,1,1.63,2.09,8.8,8.8,0,0,1,1,4.59l-1.38,0A7.59,7.59,0,0,0,301.39,63.68Z"/><path class="cls-1" d="M307.48,73.54l3.13,10.64-1.26.37L308,79.92l-12.76,3.75-.41-1.38,12.76-3.75-1.36-4.63Z"/><path class="cls-1" d="M312.2,93.74l.71,9.75-1.29.09L311,95.27l-5.21.38.54,7.44-1.29.09-.54-7.44-5.48.4.63,8.58-1.29.09-.73-10Z"/><path class="cls-1" d="M306.71,135.92a7.52,7.52,0,0,1-3.38,1.85,7,7,0,0,1-3.85-.12,7.17,7.17,0,0,1-3.27-2.08A7.7,7.7,0,0,1,300.09,123a7.15,7.15,0,0,1,3.87.12,7,7,0,0,1,3.25,2.07A7.52,7.52,0,0,1,309,128.6a7.9,7.9,0,0,1-2.26,7.32Zm1-6.92a6.14,6.14,0,0,0-1.45-2.81,5.87,5.87,0,0,0-2.69-1.7,6,6,0,0,0-3.2-.11,6.17,6.17,0,0,0-2.81,1.49,6,6,0,0,0-1.7,2.71,6,6,0,0,0-.11,3.17,6.21,6.21,0,0,0,1.48,2.81,6,6,0,0,0,2.71,1.71,5.88,5.88,0,0,0,3.18.11,6.17,6.17,0,0,0,2.78-1.49,6,6,0,0,0,1.68-2.68A6.1,6.1,0,0,0,307.67,129Z"/><path class="cls-1" d="M296,158.59l-.76,1.2L282.89,152l.82-1.29,15.28-1-10.45-6.61.77-1.22,12.33,7.8-.81,1.29-15.29,1Z"/><path class="cls-1" d="M274.78,170.75l-.93.87-3.65-3.91A8.09,8.09,0,0,1,271,165a8.35,8.35,0,0,1,1.75-2.33,7.62,7.62,0,0,1,7.34-1.78,7.15,7.15,0,0,1,3.3,2,7,7,0,0,1,1.79,3.42,7.47,7.47,0,0,1-.2,3.86,7.73,7.73,0,0,1-2.14,3.35,8.09,8.09,0,0,1-2.45,1.58,7.85,7.85,0,0,1-2.79.61l-.09-1.32a6.34,6.34,0,0,0,2.39-.47,6.72,6.72,0,0,0,2.08-1.33,6.08,6.08,0,0,0,1.71-2.73,6.23,6.23,0,0,0,.13-3.17,5.89,5.89,0,0,0-1.49-2.81,6,6,0,0,0-2.73-1.7,6.23,6.23,0,0,0-6,1.44,6.51,6.51,0,0,0-1.28,1.67,7.19,7.19,0,0,0-.73,2Z"/><path class="cls-1" d="M261.45,174.41a5.21,5.21,0,0,0-5.95,3.25,4.84,4.84,0,0,0,.62,3.66l4.16,7.63-1.27.69L254.85,182a6.05,6.05,0,1,1,10.61-5.79l4.16,7.63-1.27.69-4.16-7.62A4.81,4.81,0,0,0,261.45,174.41Z"/><path class="cls-1" d="M248.23,193.66l-1.39.39-3.63-12.8L237,183l-.35-1.25,7.57-2.15Z"/><path class="cls-1" d="M218.82,183.63l2,3.78,8.09-.48,1.48-4,1.54-.09-5.7,15-1.5.09-7.43-14.18Zm9.56,4.62-7,.41,4,7.67Z"/><path class="cls-1" d="M208.93,197.39l-1.43-.18,1.81-14.48,1.43.18Z"/><path class="cls-1" d="M191.53,178.29l1.53,5.5q.65.17,1,.28l3.81,1.24,1.45-4.49,1.37.44-4.5,13.89L191,193.46a6.36,6.36,0,0,1-3.63-2.5,4.43,4.43,0,0,1-.32-3.87,5,5,0,0,1,1.77-2.61,4.57,4.57,0,0,1,2.91-.84l-1.79-5.87Zm2.12,7a4.86,4.86,0,0,0-3.35-.09,3.39,3.39,0,0,0-1.92,2.27,3.25,3.25,0,0,0,.25,2.89,5,5,0,0,0,2.78,1.87l3.81,1.24,2.25-6.93Z"/><path class="cls-1" d="M175.33,186.81,167,181.72l.67-1.11,7.11,4.34,2.72-4.46-6.36-3.88.67-1.11,6.36,3.88L181,174.7l-7.34-4.48.67-1.11,8.57,5.23Z"/><path class="cls-1" d="M236.77,43.11a16.31,16.31,0,0,1,4.73.7c6.45,1.93,11.26,7.67,14.28,17a78.22,78.22,0,0,1,3,14.56c.47,3.77.79,7.88,1,12.26a207.47,207.47,0,0,1-1.91,36.58,88.42,88.42,0,0,1-2.35,11.41,41.73,41.73,0,0,1-11,18.16,40,40,0,0,1-27.69,11.28,38.24,38.24,0,0,1-10.22-1.39l-.74-.21a39.71,39.71,0,0,1-27-29.4,41.66,41.66,0,0,1,.72-21.21A85.27,85.27,0,0,1,183.8,102a203.75,203.75,0,0,1,18.43-31.63c2.5-3.51,4.81-6.53,7-9.2a88.91,88.91,0,0,1,8.38-8.8c6.8-6.17,13.2-9.3,19.13-9.3m-50,65.75c3-5.91,6.12-11.71,9.37-17.43s6.69-11.34,10.43-16.73A102.8,102.8,0,0,1,219,59.56a43.11,43.11,0,0,1,7.62-6.07,21.85,21.85,0,0,1,9.15-3.31h-.41a21.1,21.1,0,0,0-9.21,2.46,39.27,39.27,0,0,0-8.2,5.78,85.6,85.6,0,0,0-13,15.15c-1.87,2.75-3.67,5.55-5.36,8.4s-3.29,5.76-4.79,8.72a157.37,157.37,0,0,0-8,18.17m50-67.25c-6.28,0-13.05,3.26-20.14,9.69a90.51,90.51,0,0,0-8.52,8.95c-2.22,2.67-4.54,5.7-7.1,9.29a205.3,205.3,0,0,0-18.57,31.88,86.59,86.59,0,0,0-4.36,11,43.16,43.16,0,0,0-.74,22,41.22,41.22,0,0,0,28.07,30.5l.77.21a39.76,39.76,0,0,0,10.62,1.44,41.26,41.26,0,0,0,28.73-11.7A43.24,43.24,0,0,0,257,136.07a90,90,0,0,0,2.39-11.62A209,209,0,0,0,261.3,87.6c-.17-4.4-.5-8.57-1-12.38a79.64,79.64,0,0,0-3.11-14.84c-3.19-9.87-8.33-15.93-15.28-18a17.88,17.88,0,0,0-5.16-.76Z"/><path class="cls-1" d="M54.1,44.79H25.72v.31c3.57,0,3.95,2.32,3.95,6.89V81.44c0,4.57-.38,6.89-3.95,6.89v.32H39.07v-.32c-3.57,0-3.89-2.32-4-6.89V67h4.57c4.83,0,8.77,3.51,8.77,7.7h.32V58.95h-.32c0,4.2-3.94,7.7-8.77,7.7H35.12V52c.06-4.57.38-6.89,4-6.89h5.2c6.26,0,9.83,4.26,11.65,8.34h.31Z"/><path class="cls-1" d="M78.28,57.13c-2.38.25-7.33,3.82-8.89,9.52.06-5.76.5-8.33,1.06-8.64V57.7H60.3V58c3.57,0,4,2.25,4,6.89V81.44c0,4.57-.38,6.89-4,6.89v.32h13v-.32c-3.57,0-3.88-2.32-3.94-6.89l.06-14.1c.88-3.44,3.45-7.14,5.64-7.76s2.32,1.31,3.88,2.31A2.34,2.34,0,0,0,82.67,60C82.73,58,80.79,56.82,78.28,57.13Z"/><path class="cls-1" d="M91.5,74.11a26.36,26.36,0,0,1,.25-6.33h23.62c-1.19-7.14-6.83-11.21-14.22-10.65-8.71.63-15.85,7.46-15.22,17.17.75,10.34,9.33,15.47,18.16,14.91a15.53,15.53,0,0,0,9.84-4v-.69A14.68,14.68,0,0,1,104.09,89C97.39,89.15,92.32,83.45,91.5,74.11Zm9.65-16.73c6.39.13,8.4,5,8.9,10.15H91.81C92.94,61.64,96.33,57.32,101.15,57.38Z"/><path class="cls-1" d="M149.83,81.44V67.09c0-7.39-4.51-10-10.72-10a10.25,10.25,0,0,0-9.21,5.76c.19-3.13.57-4.63,1-4.82V57.7H120.69V58c3.57,0,4,2.25,4,6.89V81.44c0,4.57-.38,6.89-4,6.89v.32h13.1v-.32c-3.57,0-4-2.32-4-6.89v-14c0-1.44,0-2.7.06-3.82,1.44-3.83,5.33-6.08,8-6.08,6.08,0,6.83,5.07,6.83,9.27V81.44c0,4.57-.38,6.89-4,6.89v.32h13v-.32C150.2,88.33,149.89,86.08,149.83,81.44Z"/><path class="cls-1" d="M163.17,74.11c-.38-9,2.88-16.23,9.33-16.73,3.64-.25,7.21,1.13,8.46,3s-.37,2.63-.81,4.39a2.3,2.3,0,0,0,2.75,2.82c1.7-.38,2.45-2.64,1.38-4.89s-5.57-6.27-11.78-5.58c-8.7.88-15,6.64-14.59,17.11s8.77,15.53,17.6,15a15.81,15.81,0,0,0,8.65-3.63v-.76c-1.69,1.82-5.45,4.14-8.71,4.14C168.74,89,163.54,83.13,163.17,74.11Z"/><path class="cls-1" d="M219.24,81.44V67.09c0-6.5-3.43-9.29-8.43-9.89a18.68,18.68,0,0,0-2.28-.13A10.16,10.16,0,0,0,199.25,63V52.24c0-6.26.44-9.08,1.07-9.39v-.32H190.11v.32c3.57,0,3.94,2.25,3.94,6.83v30c1.69-2.69,3.44-5.32,5.2-7.84V63.71c1.38-3.88,5.33-6.2,8-6.2a7.81,7.81,0,0,1,2.82.47c3.51,1.33,4,5.32,4,8.8V81.44c0,4.57-.37,6.89-3.94,6.89v.32h13v-.32C219.62,88.33,219.3,86,219.24,81.44Z"/><path class="cls-1" d="M61.68,120H26.47l-1.38,9.39h.32c1.82-4.07,4.63-9.08,10.9-9.08h1.07c3.57,0,3.94,2.25,3.94,6.89v29.45c0,4.57-.37,6.89-3.94,6.89v.31h13.4v-.31c-3.57,0-3.94-2.32-3.94-6.89V127.17c0-4.64.37-6.89,3.94-6.89h1.07c6.26,0,9.08,5,10.9,9.08h.31Z"/><path class="cls-1" d="M80.23,132.31c-9.34.63-15.85,8-15.29,17.54s9,15.41,18.11,14.54c8.89-.82,14.41-8.71,14.09-17.42C96.83,137.51,89.06,131.68,80.23,132.31Zm2.82,31.83c-6.83.87-11.91-4.83-12.66-14.66-.69-9.59,3-16.36,9.84-16.92,6.45-.5,10.9,6.89,11.4,14.66C92.19,155.62,88.87,163.32,83.05,164.14Z"/><path class="cls-1" d="M130.16,156.68v-14.1c0-6.26.44-9.08,1.06-9.39v-.32H121.07v.32c3.57,0,3.89,2.25,4,6.89v14c0,1.44-.06,2.76-.06,3.82-1.44,3.83-5.33,6.08-8,6.08-6.08,0-6.77-5-6.77-9.27V142.58c0-6.26.44-9.08,1-9.39v-.32H101v.32c3.57,0,4,2.25,4,6.89v14.35c0,7.45,4.57,10,10.78,10a10.1,10.1,0,0,0,9.14-5.7c-.18,3.07-.5,4.57-.94,4.76v.31H134.1v-.31C130.53,163.51,130.22,161.25,130.16,156.68Z"/><path class="cls-1" d="M144.75,149.29c-.37-9,2.88-16.23,9.34-16.73,3.63-.25,7.2,1.13,8.45,3s-.37,2.63-.81,4.38a2.3,2.3,0,0,0,2.76,2.82c1.69-.37,2.44-2.63,1.38-4.89s-5.58-6.26-11.78-5.57c-8.71.88-15,6.64-14.6,17.1s8.77,15.54,17.6,15a15.7,15.7,0,0,0,8.65-3.64V160c-1.69,1.82-5.45,4.14-8.71,4.14C150.33,164.2,145.13,158.31,144.75,149.29Z"/><path class="cls-1" d="M203.41,163.36a2.46,2.46,0,0,1-.48-.16c-1.85-.76-2-3-2.11-6.58V142.27c0-7.45-4.51-10-10.71-10a10.13,10.13,0,0,0-9.27,5.89V127.42c0-6.26.44-9.08,1.06-9.4v-.31H171.69V118c3.57,0,4,2.26,4,6.83v31.77c0,4.57-.38,6.89-4,6.89v.31h13.09v-.31c-3.57,0-3.94-2.32-3.94-6.89V138.89c1.38-3.89,5.32-6.21,8-6.21,6.07,0,6.83,5,6.83,9.28v14.66a26,26,0,0,1-.15,3.27c-.3,2.4-1.22,3.62-3.8,3.62v.31h13v-.31A5.48,5.48,0,0,1,203.41,163.36Z"/></svg>